<?xml version="1.0" encoding="UTF-8" standalone="no"?>
<!-- Uploaded to: SVG Repo, www.svgrepo.com, Generator: SVG Repo Mixer Tools -->

<svg
   width="258.33759"
   height="291.66666"
   viewBox="0 0 7.7501276 8.7499997"
   fill="none"
   version="1.1"
   id="svg1"
   sodipodi:docname="freeze.svg"
   inkscape:version="1.3 (0e150ed, 2023-07-21)"
   xmlns:inkscape="http://www.inkscape.org/namespaces/inkscape"
   xmlns:sodipodi="http://sodipodi.sourceforge.net/DTD/sodipodi-0.dtd"
   xmlns="http://www.w3.org/2000/svg"
   xmlns:svg="http://www.w3.org/2000/svg">
  <defs
     id="defs1" />
  <sodipodi:namedview
     id="namedview1"
     pagecolor="#ffffff"
     bordercolor="#000000"
     borderopacity="0.25"
     inkscape:showpageshadow="2"
     inkscape:pageopacity="0.0"
     inkscape:pagecheckerboard="0"
     inkscape:deskcolor="#d1d1d1"
     inkscape:zoom="0.295"
     inkscape:cx="127.11864"
     inkscape:cy="144.0678"
     inkscape:window-width="1472"
     inkscape:window-height="920"
     inkscape:window-x="0"
     inkscape:window-y="36"
     inkscape:window-maximized="0"
     inkscape:current-layer="svg1"
     showguides="false" />
  <path
     d="m 5.118313,1.669015 c 0.1624,-0.128555 0.1898,-0.364405 0.06125,-0.52678 -0.12855,-0.16238 -0.3644,-0.189805 -0.52675,-0.06125 z m -1.476,0.21197 c -0.1624,0.128555 -0.1898,0.364405 -0.06125,0.52678 0.12855,0.16238 0.3644,0.189805 0.52675,0.06125 z m 0,0.58803 c 0.16235,0.128555 0.3982,0.10113 0.52675,-0.06125 0.12855,-0.162375 0.10115,-0.398225 -0.06125,-0.52678 z m -0.545,-1.38803 C 2.934963,0.95243 2.699103,0.979855 2.570548,1.142235 2.441993,1.30461 2.469418,1.54046 2.631798,1.669015 Z M 3.500063,2.175 c 0,0.207105 0.1679,0.375 0.375,0.375 0.2071,0 0.375,-0.167895 0.375,-0.375 z m 0.75,-1.8 c 0,-0.207105 -0.1679,-0.375 -0.375,-0.375 -0.2071,0 -0.375,0.167895 -0.375,0.375 z m 0,1.8 c 0,-0.207105 -0.1679,-0.375 -0.375,-0.375 -0.2071,0 -0.375,0.167895 -0.375,0.375 z m -0.75,4.4 c 0,0.2071 0.1679,0.375 0.375,0.375 0.2071,0 0.375,-0.1679 0.375,-0.375 z M 2.631798,7.081 C 2.469418,7.20955 2.441993,7.4454 2.570548,7.60775 2.699103,7.77015 2.934963,7.79755 3.097313,7.669 Z M 4.107813,6.869 c 0.1624,-0.12855 0.1898,-0.3644 0.06125,-0.52675 -0.12855,-0.1624 -0.3644,-0.1898 -0.52675,-0.06125 z m 0,-0.588 C 3.945463,6.15245 3.709613,6.17985 3.581063,6.34225 3.452513,6.5046 3.479913,6.74045 3.642313,6.869 Z m 0.545,1.388 c 0.16235,0.12855 0.3982,0.10115 0.52675,-0.06125 C 5.308113,7.4454 5.280713,7.20955 5.118313,7.081 Z M 4.250063,6.575 c 0,-0.2071 -0.1679,-0.375 -0.375,-0.375 -0.2071,0 -0.375,0.1679 -0.375,0.375 z m -0.75,1.8 c 0,0.2071 0.1679,0.375 0.375,0.375 0.2071,0 0.375,-0.1679 0.375,-0.375 z M 0.88032353,4.65925 c -0.193165,-0.0747 -0.410315,0.02135 -0.485015,0.2145 -0.074705,0.19315 0.02133,0.4103 0.214495,0.485 z M 1.8148035,5.82475 C 2.007968,5.89945 2.225118,5.8034 2.299818,5.61025 2.374518,5.4171 2.278488,5.19995 2.085323,5.12525 Z M 2.320693,5.5321 C 2.352223,5.3274 2.211843,5.1359 2.007148,5.10435 1.8024585,5.07285 1.6109635,5.2132 1.5794335,5.4179 Z M 1.3844335,6.6839 c -0.03153,0.2047 0.10885,0.3962 0.313545,0.42775 C 1.902668,7.14315 2.094163,7.0028 2.125693,6.7981 Z M 2.136113,5.8006 C 2.315933,5.69785 2.378408,5.46875 2.275653,5.28895 2.172898,5.10915 1.943828,5.04665 1.7640135,5.1494 Z M 0.18901353,6.0494 c -0.17982,0.10275 -0.242295,0.33185 -0.13954,0.51165 0.102755,0.1798 0.331825,0.2423 0.51164,0.13955 z m 1.57499997,-0.9 c -0.17982,0.10275 -0.242295,0.33185 -0.13954,0.51165 0.102755,0.1798 0.3318245,0.2423 0.5116395,0.13955 z M 5.986113,3.6006 C 6.165913,3.49785 6.228413,3.268765 6.125663,3.08895 6.022913,2.90913 5.793813,2.846655 5.614013,2.94941 Z m 0.8837,0.49015 c 0.19315,0.0747 0.4103,-0.02135 0.485,-0.2145 0.0747,-0.19315 -0.02135,-0.4103 -0.2145,-0.485 z m -0.9345,-1.165505 c -0.19315,-0.0747 -0.4103,0.02133 -0.485,0.214495 -0.0747,0.193165 0.02135,0.41031 0.2145,0.48501 z m -0.5059,0.292665 c -0.0315,0.20469 0.10885,0.39619 0.31355,0.42774 0.2047,0.0315 0.3962,-0.10885 0.42775,-0.31356 z m 0.9363,-1.151825 C 6.397213,1.861395 6.256863,1.6699 6.052163,1.63837 5.847463,1.60684 5.655963,1.74722 5.624413,1.951915 Z m -0.7517,0.883325 c -0.1798,0.10275 -0.2423,0.331825 -0.13955,0.51164 0.10275,0.1798 0.33185,0.2423 0.51165,0.13955 z m 1.9471,-0.24882 C 7.740913,2.597835 7.803413,2.368765 7.700663,2.18895 7.597913,2.00913 7.368813,1.946655 7.189013,2.04941 Z M 0.60980353,3.39125 c -0.193165,0.0747 -0.2892,0.29185 -0.214495,0.485 0.0747,0.19315 0.29185,0.2892 0.485015,0.2145 z M 2.085323,3.62475 C 2.278488,3.55005 2.374523,3.332905 2.299818,3.13974 2.225118,2.946575 2.007968,2.85054 1.8148035,2.925245 Z M 1.5794335,3.33209 C 1.6109635,3.5368 1.8024585,3.67715 2.007148,3.64565 2.211843,3.6141 2.352223,3.4226 2.320693,3.21791 Z M 2.125693,1.951915 C 2.094163,1.74722 1.902668,1.60684 1.6979785,1.63837 1.4932835,1.6699 1.3529035,1.861395 1.3844335,2.066085 Z M 1.7640135,3.6006 C 1.943828,3.70335 2.172898,3.64085 2.275653,3.46105 2.378408,3.281235 2.315933,3.05216 2.136113,2.94941 Z M 0.56111353,2.04941 c -0.179815,-0.102755 -0.408885,-0.04028 -0.51164,0.13954 -0.102755,0.179815 -0.04028,0.408885 0.13954,0.51164 z m 1.57499947,0.9 C 1.956298,2.846655 1.7272285,2.90913 1.6244735,3.08895 c -0.102755,0.179815 -0.04028,0.4089 0.13954,0.51165 z m 3.4779,2.85119 c 0.1798,0.10275 0.4089,0.04025 0.51165,-0.13955 0.10275,-0.1798 0.04025,-0.4089 -0.13955,-0.51165 z m 1.5263,-0.44185 c 0.19315,-0.0747 0.2892,-0.29185 0.2145,-0.485 -0.0747,-0.19315 -0.29185,-0.2892 -0.485,-0.2145 z m -1.4755,-0.2335 c -0.19315,0.0747 -0.2892,0.29185 -0.2145,0.485 0.0747,0.19315 0.29185,0.2892 0.485,0.2145 z m 0.5059,0.29265 C 6.139163,5.2132 5.947663,5.07285 5.742963,5.10435 5.538263,5.1359 5.397913,5.3274 5.429413,5.5321 Z m -0.5463,1.3802 c 0.03155,0.2047 0.22305,0.34505 0.42775,0.31355 0.2047,-0.03155 0.34505,-0.22305 0.31355,-0.42775 z m 0.3617,-1.6487 c -0.1798,-0.10275 -0.4089,-0.04025 -0.51165,0.13955 -0.10275,0.1798 -0.04025,0.4089 0.13955,0.51165 z m 1.2029,1.5512 c 0.1798,0.10275 0.4089,0.04025 0.51165,-0.13955 0.10275,-0.1798 0.04025,-0.4089 -0.13955,-0.51165 z m -2.5362,-5.619615 -1.0105,0.8 0.4655,0.58803 1.0105,-0.8 z m -0.545,0.8 -1.0105,-0.8 -0.465515,0.58803 1.010515,0.8 z M 4.250063,2.175 v -1.8 h -0.75 v 1.8 z m -0.75,0 v 4.4 h 0.75 v -4.4 z m -0.40275,5.494 1.0105,-0.8 -0.4655,-0.588 -1.010515,0.8 z m 0.545,-0.8 1.0105,0.8 0.4655,-0.588 -1.0105,-0.8 z M 3.500063,6.575 v 1.8 h 0.75 v -1.8 z M 0.60980353,5.35875 1.8148035,5.82475 2.085323,5.12525 0.88032353,4.65925 Z m 0.96962997,0.05915 -0.195,1.266 0.7412595,0.1142 0.195,-1.266 z m 0.18458,-0.2685 -1.57499997,0.9 0.3721,0.6512 1.57499947,-0.9 z m 0.3720995,0.6512 3.85,-2.2 -0.3721,-0.65119 -3.8499995,2.19999 z m 5.0042,-2.40935 -1.205,-0.466005 -0.2705,0.699505 1.205,0.466 z m -0.9696,-0.05916 0.195,-1.266005 -0.7413,-0.11417 -0.195,1.265995 z m -0.1846,0.26851 1.575,-0.90001 -0.3721,-0.65118 -1.575,0.9 z M 0.88032353,4.09075 2.085323,3.62475 1.8148035,2.925245 0.60980353,3.39125 Z M 2.320693,3.21791 l -0.195,-1.265995 -0.7412595,0.11417 0.195,1.266005 z m -0.18458,-0.2685 -1.57499947,-0.9 -0.3721,0.65118 1.57499997,0.90001 z m -0.3720995,0.65119 3.8499995,2.2 0.3721,-0.6512 -3.85,-2.19999 z m 5.1057995,1.05865 -1.205,0.466 0.2705,0.6995 1.205,-0.466 z m -1.4404,0.87285 0.195,1.266 0.7413,-0.1142 -0.195,-1.266 z m 0.1846,0.2685 1.575,0.9 0.3721,-0.6512 -1.575,-0.9 z"
     fill="#000000"
     id="path1"
     style="stroke-width:0.5" />
</svg>
