<?xml version="1.0" encoding="UTF-8" standalone="no"?>
<!-- Uploaded to: SVG Repo, www.svgrepo.com, Generator: SVG Repo Mixer Tools -->

<svg
   width="800px"
   height="800px"
   viewBox="0 0 24 24"
   fill="none"
   version="1.1"
   id="svg1"
   sodipodi:docname="freeze.svg"
   inkscape:version="1.3 (0e150ed, 2023-07-21)"
   xmlns:inkscape="http://www.inkscape.org/namespaces/inkscape"
   xmlns:sodipodi="http://sodipodi.sourceforge.net/DTD/sodipodi-0.dtd"
   xmlns="http://www.w3.org/2000/svg"
   xmlns:svg="http://www.w3.org/2000/svg">
  <defs
     id="defs1" />
  <sodipodi:namedview
     id="namedview1"
     pagecolor="#ffffff"
     bordercolor="#000000"
     borderopacity="0.25"
     inkscape:showpageshadow="2"
     inkscape:pageopacity="0.0"
     inkscape:pagecheckerboard="0"
     inkscape:deskcolor="#d1d1d1"
     inkscape:zoom="0.295"
     inkscape:cx="398.30508"
     inkscape:cy="398.30508"
     inkscape:window-width="1472"
     inkscape:window-height="920"
     inkscape:window-x="0"
     inkscape:window-y="36"
     inkscape:window-maximized="0"
     inkscape:current-layer="svg1" />
  <path
     d="M 13.24325,9.294015 C 13.40565,9.16546 13.43305,8.92961 13.3045,8.767235 13.17595,8.604855 12.9401,8.57743 12.77775,8.705985 Z m -1.476,0.21197 c -0.1624,0.128555 -0.1898,0.364405 -0.06125,0.52678 0.12855,0.16238 0.3644,0.189805 0.52675,0.06125 z m 0,0.58803 c 0.16235,0.128555 0.3982,0.10113 0.52675,-0.06125 0.12855,-0.162375 0.10115,-0.398225 -0.06125,-0.52678 z m -0.545,-1.38803 C 11.0599,8.57743 10.82404,8.604855 10.695485,8.767235 10.56693,8.92961 10.594355,9.16546 10.756735,9.294015 Z M 11.625,9.8 c 0,0.207105 0.1679,0.375 0.375,0.375 0.2071,0 0.375,-0.167895 0.375,-0.375 z M 12.375,8 C 12.375,7.792895 12.2071,7.625 12,7.625 11.7929,7.625 11.625,7.792895 11.625,8 Z m 0,1.8 c 0,-0.207105 -0.1679,-0.375 -0.375,-0.375 -0.2071,0 -0.375,0.167895 -0.375,0.375 z m -0.75,4.4 c 0,0.2071 0.1679,0.375 0.375,0.375 0.2071,0 0.375,-0.1679 0.375,-0.375 z m -0.868265,0.506 c -0.16238,0.12855 -0.189805,0.3644 -0.06125,0.52675 0.128555,0.1624 0.364415,0.1898 0.526765,0.06125 z m 1.476015,-0.212 c 0.1624,-0.12855 0.1898,-0.3644 0.06125,-0.52675 -0.12855,-0.1624 -0.3644,-0.1898 -0.52675,-0.06125 z m 0,-0.588 c -0.16235,-0.12855 -0.3982,-0.10115 -0.52675,0.06125 -0.12855,0.16235 -0.10115,0.3982 0.06125,0.52675 z m 0.545,1.388 c 0.16235,0.12855 0.3982,0.10115 0.52675,-0.06125 0.12855,-0.16235 0.10115,-0.3982 -0.06125,-0.52675 z M 12.375,14.2 c 0,-0.2071 -0.1679,-0.375 -0.375,-0.375 -0.2071,0 -0.375,0.1679 -0.375,0.375 z m -0.75,1.8 c 0,0.2071 0.1679,0.375 0.375,0.375 0.2071,0 0.375,-0.1679 0.375,-0.375 z M 9.0052605,12.28425 c -0.193165,-0.0747 -0.410315,0.02135 -0.485015,0.2145 -0.074705,0.19315 0.02133,0.4103 0.214495,0.485 z m 0.93448,1.1655 c 0.1931645,0.0747 0.4103145,-0.02135 0.4850145,-0.2145 0.0747,-0.19315 -0.02133,-0.4103 -0.214495,-0.485 z M 10.44563,13.1571 C 10.47716,12.9524 10.33678,12.7609 10.132085,12.72935 9.9273955,12.69785 9.7359005,12.8382 9.7043705,13.0429 Z m -0.9362595,1.1518 c -0.03153,0.2047 0.10885,0.3962 0.313545,0.42775 C 10.027605,14.76815 10.2191,14.6278 10.25063,14.4231 Z M 10.26105,13.4256 c 0.17982,-0.10275 0.242295,-0.33185 0.13954,-0.51165 -0.102755,-0.1798 -0.331825,-0.2423 -0.5116395,-0.13955 z m -1.9470995,0.2488 c -0.17982,0.10275 -0.242295,0.33185 -0.13954,0.51165 0.102755,0.1798 0.331825,0.2423 0.51164,0.13955 z m 1.575,-0.9 c -0.17982,0.10275 -0.242295,0.33185 -0.13954,0.51165 0.102755,0.1798 0.3318245,0.2423 0.5116395,0.13955 z M 14.11105,11.2256 c 0.1798,-0.10275 0.2423,-0.331835 0.13955,-0.51165 -0.10275,-0.17982 -0.33185,-0.242295 -0.51165,-0.13954 z m 0.8837,0.49015 c 0.19315,0.0747 0.4103,-0.02135 0.485,-0.2145 0.0747,-0.19315 -0.02135,-0.4103 -0.2145,-0.485 z m -0.9345,-1.165505 c -0.19315,-0.0747 -0.4103,0.02133 -0.485,0.214495 -0.0747,0.193165 0.02135,0.41031 0.2145,0.48501 z m -0.5059,0.292665 c -0.0315,0.20469 0.10885,0.39619 0.31355,0.42774 0.2047,0.0315 0.3962,-0.10885 0.42775,-0.31356 z m 0.9363,-1.151825 C 14.52215,9.486395 14.3818,9.2949 14.1771,9.26337 13.9724,9.23184 13.7809,9.37222 13.74935,9.576915 Z m -0.7517,0.883325 c -0.1798,0.10275 -0.2423,0.331825 -0.13955,0.51164 0.10275,0.1798 0.33185,0.2423 0.51165,0.13955 z m 1.9471,-0.24882 C 15.86585,10.222835 15.92835,9.993765 15.8256,9.81395 15.72285,9.63413 15.49375,9.571655 15.31395,9.67441 Z m -6.9513095,0.69066 c -0.193165,0.0747 -0.2892,0.29185 -0.214495,0.485 0.0747,0.19315 0.29185,0.2892 0.485015,0.2145 z m 1.4755195,0.2335 c 0.193165,-0.0747 0.2892,-0.291845 0.214495,-0.48501 -0.0747,-0.193165 -0.29185,-0.2892 -0.4850145,-0.214495 z M 9.7043705,10.95709 c 0.03153,0.20471 0.223025,0.34506 0.4277145,0.31356 C 10.33678,11.2391 10.47716,11.0476 10.44563,10.84291 Z M 10.25063,9.576915 C 10.2191,9.37222 10.027605,9.23184 9.8229155,9.26337 9.6182205,9.2949 9.4778405,9.486395 9.5093705,9.691085 Z M 9.8889505,11.2256 c 0.1798145,0.10275 0.4088845,0.04025 0.5116395,-0.13955 0.102755,-0.179815 0.04028,-0.40889 -0.13954,-0.51164 z m -1.2029,-1.55119 c -0.179815,-0.102755 -0.408885,-0.04028 -0.51164,0.13954 -0.102755,0.179815 -0.04028,0.408885 0.13954,0.51164 z m 1.5749995,0.9 c -0.179815,-0.102755 -0.4088845,-0.04028 -0.5116395,0.13954 -0.102755,0.179815 -0.04028,0.4089 0.13954,0.51165 z m 3.4779,2.85119 c 0.1798,0.10275 0.4089,0.04025 0.51165,-0.13955 0.10275,-0.1798 0.04025,-0.4089 -0.13955,-0.51165 z m 1.5263,-0.44185 c 0.19315,-0.0747 0.2892,-0.29185 0.2145,-0.485 -0.0747,-0.19315 -0.29185,-0.2892 -0.485,-0.2145 z m -1.4755,-0.2335 c -0.19315,0.0747 -0.2892,0.29185 -0.2145,0.485 0.0747,0.19315 0.29185,0.2892 0.485,0.2145 z m 0.5059,0.29265 C 14.2641,12.8382 14.0726,12.69785 13.8679,12.72935 13.6632,12.7609 13.52285,12.9524 13.55435,13.1571 Z m -0.5463,1.3802 c 0.03155,0.2047 0.22305,0.34505 0.42775,0.31355 0.2047,-0.03155 0.34505,-0.22305 0.31355,-0.42775 z m 0.3617,-1.6487 c -0.1798,-0.10275 -0.4089,-0.04025 -0.51165,0.13955 -0.10275,0.1798 -0.04025,0.4089 0.13955,0.51165 z m 1.2029,1.5512 c 0.1798,0.10275 0.4089,0.04025 0.51165,-0.13955 0.10275,-0.1798 0.04025,-0.4089 -0.13955,-0.51165 z m -2.5362,-5.619615 -1.0105,0.8 0.4655,0.58803 1.0105,-0.8 z m -0.545,0.8 -1.0105,-0.8 -0.465515,0.58803 1.010515,0.8 z M 12.375,9.8 V 8 h -0.75 v 1.8 z m -0.75,0 v 4.4 h 0.75 V 9.8 Z m -0.40275,5.494 1.0105,-0.8 -0.4655,-0.588 -1.010515,0.8 z m 0.545,-0.8 1.0105,0.8 0.4655,-0.588 -1.0105,-0.8 z M 11.625,14.2 V 16 h 0.75 v -1.8 z m -2.8902595,-1.21625 1.205,0.466 0.2705195,-0.6995 -1.2049995,-0.466 z m 0.96963,0.05915 -0.195,1.266 0.7412595,0.1142 0.195,-1.266 z m 0.18458,-0.2685 -1.575,0.9 0.3721,0.6512 1.5749995,-0.9 z m 0.3720995,0.6512 3.85,-2.2 -0.3721,-0.65119 -3.8499995,2.19999 z m 5.0042,-2.40935 -1.205,-0.466005 -0.2705,0.699505 1.205,0.466 z m -0.9696,-0.05916 0.195,-1.266005 -0.7413,-0.11417 -0.195,1.265995 z m -0.1846,0.26851 1.575,-0.90001 -0.3721,-0.65118 -1.575,0.9 z m -5.1057895,0.49015 1.2049995,-0.466 -0.2705195,-0.699505 -1.205,0.466005 z m 1.4403695,-0.87284 -0.195,-1.265995 -0.7412595,0.11417 0.195,1.266005 z m -0.18458,-0.2685 -1.5749995,-0.9 -0.3721,0.65118 1.575,0.90001 z m -0.3720995,0.65119 3.8499995,2.2 0.3721,-0.6512 -3.85,-2.19999 z m 5.1057995,1.05865 -1.205,0.466 0.2705,0.6995 1.205,-0.466 z m -1.4404,0.87285 0.195,1.266 0.7413,-0.1142 -0.195,-1.266 z m 0.1846,0.2685 1.575,0.9 0.3721,-0.6512 -1.575,-0.9 z"
     fill="#000000"
     id="path1"
     style="stroke-width:0.5" />
</svg>
